<?xml version="1.0" encoding="utf-8"?>
<!-- Generator: Adobe Illustrator 27.8.1, SVG Export Plug-In . SVG Version: 6.00 Build 0)  -->
<svg version="1.1" id="Layer_1" xmlns="http://www.w3.org/2000/svg" xmlns:xlink="http://www.w3.org/1999/xlink" x="0px" y="0px"
	 width="144px" height="144px" viewBox="0 0 144 144" style="enable-background:new 0 0 144 144;" xml:space="preserve">
<path d="M37.4,86.5c-0.1-0.3-0.5-0.5-0.8-0.3L29.3,89l3.2-7.2c0.1-0.3,0-0.6-0.3-0.8c-0.3-0.1-0.6,0-0.8,0.3l-3.2,7.2l-2.8-7.3
	c-0.1-0.3-0.5-0.5-0.8-0.3c-0.3,0.1-0.5,0.5-0.3,0.8l2.8,7.3l-7.2-3.2c-0.3-0.1-0.6,0-0.8,0.3c-0.1,0.3,0,0.7,0.3,0.8l7.2,3.2
	l-7.3,2.8C19,93,18.8,93.3,19,93.6c0.1,0.2,0.3,0.4,0.6,0.4c0.1,0,0.1,0,0.2,0l7.3-2.8l-3.2,7.2c-0.1,0.3,0,0.7,0.3,0.8
	c0.1,0,0.2,0.1,0.2,0.1c0.2,0,0.4-0.1,0.5-0.4l3.2-7.2l2.8,7.3c0.1,0.2,0.3,0.4,0.6,0.4c0.1,0,0.1,0,0.2,0c0.3-0.1,0.5-0.5,0.3-0.8
	l-2.8-7.3l7.2,3.2c0.1,0,0.2,0.1,0.2,0.1c0.2,0,0.4-0.1,0.5-0.4c0.1-0.3,0-0.7-0.3-0.8l-7.2-3.2l7.3-2.8
	C37.3,87.1,37.5,86.8,37.4,86.5z M20.1,75.5c0-0.3-0.3-0.6-0.6-0.6h-2.1v-2.1c0-0.3-0.3-0.6-0.6-0.6c-0.3,0-0.6,0.3-0.6,0.6V75h-2.1
	c-0.3,0-0.6,0.3-0.6,0.6c0,0.3,0.3,0.6,0.6,0.6h2.1v2.1c0,0.3,0.3,0.6,0.6,0.6c0.3,0,0.6-0.3,0.6-0.6v-2.1h2.1
	C19.9,76.1,20.1,75.9,20.1,75.5z M130.2,72.5c0,0.3,0.3,0.6,0.6,0.6h2.1v2.1c0,0.3,0.3,0.6,0.6,0.6c0.3,0,0.6-0.3,0.6-0.6v-2.1h2.1
	c0.3,0,0.6-0.3,0.6-0.6c0-0.3-0.3-0.6-0.6-0.6h-2.1v-2.1c0-0.3-0.3-0.6-0.6-0.6c-0.3,0-0.6,0.3-0.6,0.6v2.1h-2.1
	C130.5,71.9,130.2,72.2,130.2,72.5z M128.8,66.1c0.9,0,1.6-0.7,1.6-1.6s-0.7-1.6-1.6-1.6s-1.6,0.7-1.6,1.6S127.9,66.1,128.8,66.1z
	 M139,88.1c-0.9-2.6-3.1-4.1-5.1-5.4l-0.3-0.2c-1.5-1-2.9-2.2-4.3-3.4c-0.7-0.6-1.4-1.1-2.1-1.7c-5.5-4.4-10.6-7.8-15.5-10.3
	c-6.2-3.3-12.3-4.6-18.7-6c-1.4-0.3-2.8-0.6-4.3-1c-1.6-0.4-3.1-1-4.6-1.9l-0.2-0.1c0,0-0.1,0-0.1-0.1l-2-1.2c0,0-0.1,0-0.1,0
	l-0.3-0.2c-1.5-0.9-2.7-1.9-3.7-3.2c-1-1.1-1.9-2.3-2.8-3.4c-4.2-5.1-8.1-9.9-13.8-14c-4.5-3.2-9.8-6.2-16.2-9.2
	c-0.8-0.4-1.6-0.7-2.5-1.1c-1.6-0.7-3.3-1.5-4.9-2.3L37.1,23c-2.1-1.2-4.5-2.5-7.1-2.1c-2.7,0.4-5.2,2-6.6,4.4c-1,1.7-1,3.5-1,5.2
	c0,1,0,2-0.2,3c-0.4,1.8-1,3.8-1.8,6.1l-0.4,1L9.6,41.5c-1.5,0.1-2.8,0.8-3.7,1.9c-0.9,1.1-1.4,2.6-1.3,4c0.1,1.7,1.1,3.3,2.6,4.2
	C8,52.2,9,52.5,10,52.5c0.2,0,0.3,0,0.5,0l6.5-0.6c-0.7,7.5,2.2,13.6,8.5,18.3c5.1,3.8,11,6.5,16.8,7.6c8.8,1.7,17-0.5,24.3-6.6
	c0.9-0.8,1.8-1.6,2.6-2.4c0.9-0.9,1.7-1.7,2.5-2.3l8,4.9c-0.2,1-0.6,2.1-0.9,3.2c-0.4,1.1-0.7,2.2-1,3.4c-2.2,9.2-0.5,17.5,5,24.6
	c3.6,4.6,8.7,8.7,14.3,11.6c3.3,1.7,6.6,2.5,9.8,2.5c3.6,0,7.1-1.1,10.4-3.1l2.4,6c0.4,1.1,1.2,2,2.2,2.6c0.9,0.5,1.9,0.8,2.9,0.8
	c0.7,0,1.4-0.1,2-0.4c2.8-1.1,4.2-4.3,3.1-7.2l-3.9-9.7l0.8-0.8c1.7-1.8,3.2-3.2,4.7-4.4c0.8-0.6,1.7-1.1,2.6-1.5
	c1.5-0.7,3.1-1.5,4.2-3.2C139.5,93.7,139.9,90.7,139,88.1z M10.4,51C9.5,51,8.7,50.8,8,50.4c-1.1-0.7-1.8-1.8-1.9-3.1
	C6,46.3,6.3,45.2,7,44.4c0.7-0.8,1.6-1.3,2.7-1.4c0,0,0,0,0,0l9.7-0.8c-0.9,2.6-1.8,5.3-2.3,8.2L10.4,51z M73,65.6
	c1.3-0.6,2.7-0.7,4.5,0.2c1.6,1.2,2.2,2.5,2.2,4L73,65.6z M128.3,116.2c0.8,2-0.2,4.4-2.2,5.2c-1.2,0.5-2.5,0.4-3.6-0.3
	c-0.7-0.5-1.3-1.1-1.6-1.9l-2.5-6.3c2.3-1.7,4.4-3.7,6.3-5.7L128.3,116.2z M136.8,95.2c-0.8,1.3-2.2,2-3.5,2.6c-1,0.5-2,1-2.9,1.7
	c-1.5,1.2-3,2.7-4.8,4.5l-0.3,0.3l-0.6,0.6l-0.3,0.3c-0.1,0.1-0.2,0.2-0.3,0.3c-1.9,2-3.9,4.1-6.3,5.8c-0.2,0.2-0.4,0.3-0.6,0.5
	c0,0-0.1,0.1-0.1,0.1c-0.2,0.1-0.3,0.2-0.5,0.3c-6,3.8-12.2,4.1-18.9,0.7c-5.5-2.7-10.4-6.7-13.8-11.1C78.6,95,77,87.2,79.1,78.5
	c0.3-1.1,0.6-2.2,1-3.3c0.3-0.9,0.6-1.9,0.9-2.9c0.1-0.3,0.1-0.5,0.2-0.8c0.1-0.3,0.1-0.6,0.1-0.8c0.2-2.2-0.3-4.3-2.8-6.1
	c0,0-0.1,0-0.1-0.1c-1.2-0.6-2.3-0.9-3.3-0.9c-1.3,0-2.4,0.4-3.5,1.1c-0.2,0.1-0.5,0.3-0.7,0.5c-0.2,0.2-0.4,0.3-0.6,0.5
	c-0.7,0.6-1.5,1.3-2.2,2c-0.8,0.8-1.6,1.6-2.5,2.3c-6.9,5.8-14.6,7.9-23,6.2C37,75.3,31.3,72.7,26.4,69c-6-4.5-8.6-10.1-7.9-17.2
	c0-0.2,0-0.4,0.1-0.6c0-0.1,0-0.1,0-0.2c0-0.3,0.1-0.5,0.1-0.8c0.5-2.8,1.4-5.5,2.4-8.2c0-0.1,0.1-0.3,0.2-0.4l0.1-0.4l0.3-0.8
	l0.1-0.4c0.9-2.4,1.5-4.4,1.9-6.3c0.3-1.2,0.2-2.3,0.2-3.4c0-1.5,0-3,0.8-4.4c1.1-1.9,3.3-3.3,5.5-3.6c2.2-0.3,4.2,0.8,6.2,1.9
	l0.4,0.2c1.6,0.9,3.4,1.7,5.1,2.4c0.8,0.4,1.6,0.7,2.4,1.1c6.3,2.9,11.5,5.9,16,9c5.5,3.9,9.4,8.7,13.5,13.7
	c0.9,1.1,1.9,2.3,2.8,3.4c1.2,1.4,2.5,2.6,4.2,3.6L81,58c0,0,0,0,0.1,0l1.9,1.2c0,0,0,0,0.1,0l0.4,0.2c1.6,1,3.2,1.7,5,2.1
	c1.5,0.3,2.9,0.7,4.3,1c6.3,1.4,12.3,2.7,18.3,5.9c4.8,2.5,9.8,5.9,15.2,10.2c0.7,0.6,1.4,1.1,2.1,1.7c1.4,1.2,2.9,2.4,4.4,3.4
	l0.3,0.2c1.9,1.3,3.8,2.6,4.5,4.7C138.3,90.7,138,93.3,136.8,95.2z M57,38.1c-3-1.9-13.6-8-22.4-5.3c-3.6,1.1-6.4,3.5-8.3,7.2
	c-0.1,0.3-0.3,0.5-0.4,0.8c-0.1,0.2-0.2,0.4-0.3,0.5c0,0.1-0.1,0.2-0.1,0.3c-1.2,2.8-2,5.5-2.4,8.2c0,0.3-0.1,0.5-0.1,0.8
	c0,0.3-0.1,0.5-0.1,0.8c-0.4,4.5,0.4,8.6,2.4,11.9c3.8,6.3,11.2,10.3,19.5,10.5c0.2,0,0.4,0,0.6,0c7.9,0,15-3.6,19-9.6
	c0.3-0.5,0.6-1,0.9-1.5c0.1-0.2,0.2-0.5,0.4-0.7c0.1-0.2,0.2-0.5,0.3-0.7c0.8-1.7,1.2-3.4,1.4-5.2c0-0.3,0-0.6,0-0.8
	c0-0.3,0-0.6,0-0.9c0-0.3,0-0.6,0-0.9C67,47.7,63.3,42.1,57,38.1z M50,50.4c1.8,0.4,3.9-0.1,5.5-1.6c0.1-0.1,0.2,0,0.2,0.1
	c-0.7,2-0.4,4.2,0.7,5.7c0.1,0.1,0,0.2-0.1,0.2c-1.8-0.4-3.9,0.1-5.5,1.6c-0.1,0.1-0.2,0-0.2-0.1c0.7-2,0.4-4.2-0.7-5.7
	C49.8,50.5,49.9,50.4,50,50.4z M29.2,42.5c0.2-0.4,0.4-0.8,0.7-1.2c0.2-0.3,0.4-0.5,0.6-0.8c0.1-0.1,0.1-0.2,0.2-0.3
	c0.1-0.2,0.3-0.4,0.5-0.6c0.5-0.6,1.2-1.2,1.9-1.7c0.5-0.4,1-0.7,1.5-1c0.3-0.1,0.6-0.3,0.9-0.4c0.3-0.1,0.6-0.3,1-0.4l0,0
	c0.3-0.1,0.6-0.2,1-0.3c0.3-0.1,0.6-0.1,0.9-0.2c0.6-0.1,1.1-0.1,1.6-0.1c1,0,1.8,0.1,2.6,0.3c1.2,0.3,2.2,0.7,2.9,1.1
	c0.7,0.4,1.2,0.9,1.6,1.3c0.7,0.8,0.7,1.6,0.6,2.2c-0.2,0.9-0.7,1.5-2,1.7c-0.3,0-0.6,0.1-1,0.1c-0.3,0-0.6,0-0.9,0.1
	c-0.2,0-0.4,0-0.6,0c-0.1,0-0.2,0-0.4,0c-0.4,0-0.9,0.1-1.4,0.1c-0.2,0-0.3,0-0.5,0.1c-0.1,0-0.2,0-0.3,0c-0.1,0-0.2,0-0.2,0.1
	c-0.3,0.1-0.7,0.2-1,0.3c-0.2,0.1-0.4,0.1-0.5,0.2c-0.2,0.1-0.3,0.2-0.5,0.2c-0.2,0.1-0.4,0.2-0.5,0.3c-0.2,0.1-0.4,0.2-0.5,0.4l0,0
	c-0.7,0.5-1.3,1-1.7,1.5c-0.2,0.2-0.4,0.5-0.6,0.7c-0.2,0.2-0.4,0.4-0.5,0.6c-0.9,1.1-1.5,1.8-2.1,2.2c-0.1,0.1-0.2,0.1-0.2,0.2
	c-0.6,0.4-1.3,0.3-1.9,0c0,0,0,0,0,0c-0.4-0.2-0.8-0.5-1.1-0.9c-0.1-0.2-0.3-0.5-0.3-0.9c-0.1-0.3-0.1-0.8-0.1-1.2
	C28.3,45.2,28.5,44,29.2,42.5z M39.7,61.7c-1.3-0.3-2.7,0.1-3.8,1.1c-0.1,0.1-0.1,0-0.1-0.1c0.5-1.4,0.3-2.9-0.5-3.9
	c0-0.1,0-0.1,0.1-0.1c1.3,0.3,2.7-0.1,3.8-1.1c0.1-0.1,0.1,0,0.1,0.1c-0.5,1.4-0.3,2.9,0.5,3.9C39.8,61.7,39.7,61.8,39.7,61.7z
	 M63,57.3C63,57.3,62.9,57.3,63,57.3c-0.4-0.1-0.7-0.1-0.9-0.1c-2.1-0.1-3.6,1.3-5.3,2.8c-1.8,1.5-3.6,3.1-6,3.1
	c-0.4,0-0.9,0-1.3-0.2c-3.2-0.7-4.1-3.4-5-5.8c-0.8-2.3-1.6-4.4-4.1-5c-2.5-0.6-4.3,1-6.2,2.7c-2.1,1.8-4.2,3.6-7.3,2.9
	c-0.3-0.1-0.5-0.4-0.5-0.7c0.1-0.3,0.4-0.5,0.7-0.5c2.5,0.6,4.3-1,6.2-2.7c2.1-1.8,4.2-3.6,7.3-2.9c3.2,0.7,4.1,3.4,5,5.8
	c0.8,2.3,1.6,4.4,4.1,5c2.5,0.6,4.3-1,6.2-2.7c2-1.7,4-3.4,6.9-3c0.2,0,0.3,0,0.5,0.1c0.1,0,0.2,0.1,0.3,0.2
	c0.2,0.1,0.2,0.4,0.2,0.6C63.7,57.2,63.3,57.4,63,57.3z M111.5,71.7c-6.4-3.8-13.1-4.6-18.4-2.4c-0.3,0.1-0.6,0.2-0.8,0.4
	c-0.3,0.1-0.5,0.3-0.8,0.4c-0.2,0.1-0.5,0.3-0.7,0.4c-1.5,0.9-2.8,2.1-4,3.6c-0.2,0.2-0.3,0.4-0.5,0.6c-0.2,0.2-0.3,0.4-0.4,0.6
	c-0.3,0.5-0.6,1-0.9,1.5c-3.7,6.4-3.6,14.6,0.3,21.8c3.9,7.3,10.8,12.2,18.1,12.7c0.4,0,0.8,0,1.2,0c3.5,0,7.1-1.1,10.5-3.3
	c0.2-0.1,0.4-0.3,0.7-0.4c0.2-0.1,0.4-0.3,0.7-0.4c2.2-1.5,4.3-3.5,6.3-5.8c0.1-0.1,0.1-0.1,0.2-0.2c0.1-0.2,0.2-0.3,0.4-0.5
	c0.2-0.2,0.4-0.5,0.5-0.7c2.4-3.4,3.3-7,2.7-10.7C124.7,80.3,114.5,73.5,111.5,71.7z M110.4,86.5c0.6,0.2,1.3,0.2,1.9,0.1
	c0.3,0,0.7-0.1,1-0.2c0.4-0.1,0.8-0.3,1.2-0.5c0.5-0.3,0.9-0.6,1.3-0.9c0,0,0,0,0,0c0.1-0.1,0.2,0,0.2,0.1c0,0.1,0,0.1-0.1,0.2
	c-0.6,2-0.3,4,0.8,5.5c0.1,0.1,0,0.2-0.1,0.2c-1.8-0.4-3.9,0.1-5.5,1.6c-0.1,0.1-0.2,0-0.2-0.1c0.1-0.4,0.2-0.8,0.3-1.2
	c0.1-0.5,0.1-1.1,0.1-1.6c0-0.4-0.1-0.8-0.2-1.1c-0.2-0.7-0.5-1.3-0.9-1.8C110.2,86.6,110.3,86.5,110.4,86.5z M89.6,78.7
	c0.1-0.2,0.3-0.5,0.4-0.8c0.3-0.5,0.6-1,1-1.5c0.5-0.7,1.2-1.4,2-2c0.1-0.1,0.3-0.2,0.4-0.3c0.5-0.4,1-0.7,1.5-1
	c0.3-0.1,0.6-0.3,0.9-0.4c0.3-0.1,0.6-0.3,1-0.4l0,0c0.3-0.1,0.6-0.2,1-0.3c0.3-0.1,0.6-0.1,0.9-0.2c0.6-0.1,1.1-0.1,1.6-0.1
	c1,0,1.8,0.1,2.6,0.3c1.2,0.3,2.2,0.7,2.9,1.1c0.7,0.4,1.2,0.9,1.6,1.3c0.7,0.9,0.7,1.6,0.6,2.2c-0.2,0.9-0.7,1.5-2,1.7
	c-0.6,0.1-1.4,0.1-2.5,0.2c-0.5,0-1.1,0.1-1.8,0.2c-0.2,0-0.3,0-0.5,0.1c-0.1,0-0.2,0-0.3,0c-0.1,0-0.2,0-0.2,0.1
	c-0.3,0.1-0.7,0.2-1,0.3c-0.2,0.1-0.4,0.1-0.5,0.2c-0.2,0.1-0.3,0.2-0.5,0.2c-0.2,0.1-0.4,0.2-0.5,0.3c-0.2,0.1-0.4,0.2-0.5,0.4l0,0
	c-0.7,0.5-1.3,1-1.7,1.5c-0.2,0.2-0.4,0.5-0.6,0.7c-0.2,0.2-0.4,0.4-0.5,0.6c-1,1.2-1.7,2-2.4,2.4c-0.6,0.4-1.3,0.3-1.9,0
	c-0.4-0.2-0.8-0.5-1.1-0.9c-0.1-0.2-0.3-0.5-0.3-0.9c-0.1-0.4-0.1-0.8-0.1-1.2C88.7,81.4,88.9,80.1,89.6,78.7z M100.1,97.9
	c-1.3-0.3-2.7,0.1-3.8,1.1c-0.1,0.1-0.1,0-0.1-0.1c0.5-1.4,0.3-2.9-0.5-3.9c0-0.1,0-0.1,0.1-0.1c1.3,0.3,2.7-0.1,3.8-1.1
	c0.1-0.1,0.1,0,0.1,0.1c-0.5,1.4-0.3,2.9,0.5,3.9C100.2,97.8,100.1,97.9,100.1,97.9z M124.1,93c-0.1,0.3-0.4,0.5-0.7,0.5
	c-0.9-0.2-1.7-0.1-2.4,0.1c-0.2,0.1-0.5,0.2-0.7,0.3c-0.2,0.1-0.5,0.2-0.7,0.4c-0.8,0.5-1.6,1.2-2.4,1.9c-1.3,1.1-2.7,2.3-4.3,2.8
	c-0.2,0.1-0.5,0.1-0.8,0.2s-0.5,0.1-0.8,0.1c-0.1,0-0.1,0-0.2,0c-0.4,0-0.9,0-1.3-0.2c-3.2-0.7-4.1-3.4-5-5.8
	c-0.8-2.3-1.6-4.4-4.1-5c-2.5-0.6-4.3,1-6.2,2.7c-2.1,1.8-4.2,3.6-7.3,2.9c-0.3-0.1-0.5-0.4-0.5-0.7c0.1-0.3,0.4-0.5,0.7-0.5
	c2.5,0.6,4.3-1,6.2-2.7c2.1-1.8,4.2-3.6,7.3-2.9c3.2,0.7,4.1,3.4,5,5.8c0.8,2.3,1.6,4.4,4.1,5c0.3,0.1,0.5,0.1,0.7,0.1
	c0.3,0,0.6,0,0.8,0c0.3,0,0.5-0.1,0.8-0.2c1.4-0.4,2.6-1.5,3.9-2.6c0.9-0.8,1.8-1.6,2.8-2.1c0.2-0.1,0.5-0.3,0.7-0.4
	s0.5-0.2,0.7-0.3c0.9-0.3,2-0.4,3.2-0.1C124,92.3,124.2,92.7,124.1,93z M29.4,30.2c0.4,0.2,0.8,0.4,1.2,0.4c0.2,0,0.4,0,0.6-0.1
	c0.6-0.1,1.1-0.5,1.5-1.1c0.3-0.5,0.4-1.2,0.3-1.8c-0.1-0.6-0.5-1.1-1.1-1.5c-1.1-0.7-2.6-0.3-3.3,0.8
	C27.9,28.1,28.3,29.5,29.4,30.2z M29.9,27.8c0.2-0.3,0.4-0.4,0.7-0.4c0.2,0,0.3,0,0.4,0.1c0.2,0.1,0.3,0.3,0.4,0.5
	c0.1,0.2,0,0.4-0.1,0.6c0,0,0,0,0,0C31.2,28.8,31,29,30.8,29c-0.2,0.1-0.4,0-0.6-0.1C29.8,28.7,29.7,28.2,29.9,27.8z M133.4,88.8
	c-1.1-0.7-2.6-0.3-3.3,0.8c-0.3,0.5-0.4,1.2-0.3,1.8c0.1,0.6,0.5,1.1,1.1,1.5c0.4,0.2,0.8,0.4,1.2,0.4c0.8,0,1.6-0.4,2-1.1
	c0,0,0,0,0,0C134.9,91,134.5,89.5,133.4,88.8z M132.9,91.3c-0.2,0.4-0.8,0.5-1.1,0.3c-0.2-0.1-0.3-0.3-0.4-0.5
	c-0.1-0.2,0-0.4,0.1-0.6c0.2-0.3,0.4-0.4,0.7-0.4c0.1,0,0.3,0,0.4,0.1C133,90.4,133.1,90.9,132.9,91.3z"/>
</svg>
