<svg xmlns="http://www.w3.org/2000/svg" width="400" height="400" viewBox="0 0 124 124" fill="none">
<path d="M 108.3035245 4.6454095 L 110.0125088 4.6454095 L 110.061337 5.8172845 Q 111.2234463 4.450097 113.1961026 4.450097 A 3.0209161 3.0209161 0 0 1 116.2136808 6.1493157 A 4.0027751 4.0027751 0 0 1 117.585751 4.918847 Q 118.4304776 4.450097 119.5828213 4.450097 A 3.2228551 3.2228551 0 0 1 123.1179777 8.1317377 L 123.1179776 15.2118158 L 121.311337 15.2118158 L 121.311337 8.2391595 Q 121.311337 7.106347 120.7937588 6.5448236 A 2.2793571 2.2793571 0 0 0 119.0554776 5.9833002 A 2.3956158 2.3956158 0 0 0 117.3855556 6.5838859 A 2.4364407 2.4364407 0 0 0 116.6140714 8.200097 L 116.6140713 15.2118158 L 114.7976651 15.2118158 L 114.7976651 8.2879877 Q 114.7976651 5.9833002 112.5418057 5.9833002 A 2.4171957 2.4171957 0 0 0 110.1101652 7.4969721 L 110.1101651 15.2118158 L 108.3035245 15.2118158 L 108.3035245 4.6454095 Z M 222.0437588 4.6454095 L 224.5535245 12.7215814 L 226.5847745 4.6454095 L 228.3914151 4.6454095 L 225.3152432 15.2118158 L 223.8503995 15.2118158 L 221.2820401 7.2040033 L 218.7820401 15.2118158 L 217.3171963 15.2118158 L 214.2507901 4.6454095 L 216.0476651 4.6454095 L 218.1277432 12.5555658 L 220.5886807 4.6454095 L 222.0437588 4.6454095 Z M 74.4851651 0.2118158 L 74.4851651 5.9247064 Q 75.686337 4.450097 77.6101651 4.450097 Q 80.9597745 4.450097 80.9890713 8.2293939 L 80.9890713 15.2118158 L 79.1824307 15.2118158 L 79.1824307 8.2196283 A 2.432483 2.432483 0 0 0 78.6599699 6.5301751 Q 78.1472745 5.9833002 77.0632901 5.9833002 A 2.60745 2.60745 0 0 0 75.5203214 6.4520502 A 3.1830932 3.1830932 0 0 0 74.485165 7.6825189 L 74.4851651 15.2118158 L 72.6785245 15.2118158 L 72.6785245 0.2118158 L 74.4851651 0.2118158 Z M 99.9539151 15.2118158 L 96.2722745 10.3192377 L 95.139462 11.5008783 L 95.139462 15.2118158 L 93.3328213 15.2118158 L 93.3328213 0.2118158 L 95.139462 0.2118158 L 95.139462 9.2840814 L 96.1062588 8.121972 L 99.3972745 4.6454095 L 101.5945401 4.6454095 L 97.483212 9.059472 L 102.0730557 15.2118158 L 99.9539151 15.2118158 Z M 68.2156338 5.8172845 L 68.3035245 4.6454095 L 69.9539151 4.6454095 L 69.9539151 14.9579095 A 4.2985759 4.2985759 0 0 1 68.7380949 18.1903315 Q 67.5222745 19.371972 65.4714932 19.371972 A 5.4345221 5.4345221 0 0 1 63.2351651 18.8836907 Q 62.1414151 18.3954095 61.5652432 17.5458002 L 62.5027432 16.4618158 A 3.5328631 3.5328631 0 0 0 65.3445401 17.8973628 A 2.7680892 2.7680892 0 0 0 67.4002042 17.1551752 A 2.8367541 2.8367541 0 0 0 68.137509 15.0653314 L 68.1375088 14.1571283 A 3.7131896 3.7131896 0 0 1 65.1785245 15.4071284 Q 63.3230557 15.4071283 62.1755948 13.9129877 Q 61.0281338 12.418847 61.0281338 9.840722 A 6.2100505 6.2100505 0 0 1 62.1707121 5.910058 Q 63.3132901 4.450097 65.1980557 4.450097 A 3.6347973 3.6347973 0 0 1 68.215634 5.8172844 Z M 185.5007901 7.7508783 L 183.6843838 7.7508783 A 1.6309879 1.6309879 0 0 0 183.054501 6.4715815 A 2.3600858 2.3600858 0 0 0 181.467587 5.9344721 A 2.4699975 2.4699975 0 0 0 179.9246182 6.3641595 Q 179.3679776 6.793847 179.3679776 7.4872064 A 1.0958974 1.0958974 0 0 0 179.8855557 8.4735344 A 6.368174 6.368174 0 0 0 181.7556729 9.1083001 A 9.7442145 9.7442145 0 0 1 183.9480557 9.8309563 Q 184.7878995 10.2508783 185.1931729 10.8416986 A 2.4851401 2.4851401 0 0 1 185.5984463 12.2821283 A 2.704215 2.704215 0 0 1 184.4656338 14.552636 Q 183.3328213 15.4071283 181.5261807 15.4071283 A 5.3208399 5.3208399 0 0 1 179.280087 14.9579096 A 3.6530808 3.6530808 0 0 1 177.7517666 13.7030268 Q 177.2000088 12.8973627 177.2000088 11.9598627 L 179.0066495 11.9598627 A 1.8704767 1.8704767 0 0 0 179.7341885 13.4002925 Q 180.4128995 13.9325189 181.5261807 13.9325189 A 2.9134794 2.9134794 0 0 0 183.1716885 13.5174799 A 1.2752924 1.2752924 0 0 0 183.7918055 12.4090814 A 1.3300009 1.3300009 0 0 0 183.240048 11.271386 Q 182.6882901 10.8661127 181.3162198 10.5731439 Q 179.9441495 10.2801752 179.1384854 9.8700189 A 3.0981519 3.0981519 0 0 1 177.9470793 8.8934564 Q 177.561337 8.3270502 177.561337 7.5458002 Q 177.561337 6.246972 178.6599698 5.3485345 A 4.2905223 4.2905223 0 0 1 181.4675869 4.450097 Q 183.264462 4.450097 184.382626 5.3778314 A 2.9466219 2.9466219 0 0 1 185.50079 7.7508783 Z M 240.9597745 4.6454095 L 243.5964932 12.5653314 L 246.0574307 4.6454095 L 247.9910245 4.6454095 L 243.7429776 16.8426752 A 3.3555424 3.3555424 0 0 1 240.608212 19.4793938 L 240.2664151 19.450097 L 239.592587 19.3231439 L 239.592587 17.8583002 L 240.0808682 17.8973627 A 2.4040354 2.4040354 0 0 0 241.5115323 17.5262689 A 2.6856158 2.6856158 0 0 0 242.3562587 16.168847 L 242.7566495 15.0946283 L 238.9871182 4.6454095 L 240.9597745 4.6454095 Z M 125.842587 4.6454095 L 127.5515713 4.6454095 L 127.6101651 5.9735345 A 3.8504985 3.8504985 0 0 1 130.7742276 4.450097 Q 134.123837 4.450097 134.1531338 8.2293939 L 134.1531338 15.2118158 L 132.3464932 15.2118158 L 132.3464932 8.2196283 A 2.432483 2.432483 0 0 0 131.8240324 6.5301751 Q 131.311337 5.9833002 130.2273526 5.9833002 A 2.60745 2.60745 0 0 0 128.6843839 6.4520502 A 3.1830932 3.1830932 0 0 0 127.6492275 7.6825189 L 127.6492276 15.2118158 L 125.842587 15.2118158 L 125.842587 4.6454095 Z M 201.0476651 15.2118158 L 201.0086026 14.1668939 Q 199.9539151 15.4071283 197.9128995 15.4071283 A 3.2847227 3.2847227 0 0 1 195.3396574 14.4256829 Q 194.4558682 13.4442377 194.4461026 11.5204095 L 194.4461026 4.6454095 L 196.2527432 4.6454095 L 196.2527432 11.4715814 Q 196.2527432 13.8739252 198.2058682 13.8739252 A 2.704334 2.704334 0 0 0 200.9597744 12.3309564 L 200.9597745 4.6454095 L 202.7664151 4.6454095 L 202.7664151 15.2118158 L 201.0476651 15.2118158 Z M 257.1902432 5.9247064 L 251.3015713 13.7372064 L 257.483212 13.7372064 L 257.483212 15.2118158 L 249.0945401 15.2118158 L 249.0945401 13.8836908 L 254.9246182 6.1395502 L 249.1824307 6.1395502 L 249.1824307 4.6454095 L 257.1902432 4.6454095 L 257.1902432 5.9247064 Z M 231.4578213 4.6454095 L 233.7722745 8.5028314 L 236.1160245 4.6454095 L 238.2253995 4.6454095 L 234.7683682 9.8700189 L 238.3328213 15.2118158 L 236.2429776 15.2118158 L 233.8015713 11.2567377 L 231.3601651 15.2118158 L 229.2605557 15.2118158 L 232.8250088 9.8700189 L 229.3679776 4.6454095 L 231.4578213 4.6454095 Z M 29.1336026 11.8817377 L 30.842587 11.8817377 Q 30.7937588 12.7899408 30.217587 13.6102533 A 4.1163832 4.1163832 0 0 1 28.679501 14.9188469 A 4.4380537 4.4380537 0 0 1 26.6433682 15.4071285 A 4.3527978 4.3527978 0 0 1 23.2107509 13.9666987 A 5.7370711 5.7370711 0 0 1 21.9363368 10.0262689 L 21.936337 9.7235345 Q 21.936337 8.1805658 22.5027432 6.9793939 A 4.314036 4.314036 0 0 1 24.1287197 5.1141595 A 4.6188647 4.6188647 0 0 1 26.6336026 4.4500971 A 4.2377339 4.2377339 0 0 1 29.5877042 5.5145502 A 3.8042162 3.8042162 0 0 1 30.8425869 8.278222 L 29.1336026 8.278222 A 2.489736 2.489736 0 0 0 28.3572355 6.5936517 A 2.4151591 2.4151591 0 0 0 26.6336026 5.9344719 A 2.5286195 2.5286195 0 0 0 24.4998136 6.925683 Q 23.7429776 7.9168939 23.7429776 9.7918939 L 23.7429776 10.1336908 A 4.5623004 4.5623004 0 0 0 24.4949306 12.9461909 A 2.5407291 2.5407291 0 0 0 26.6433682 13.9325188 A 2.6023116 2.6023116 0 0 0 28.3328213 13.3465813 Q 29.0554776 12.7606439 29.1336026 11.8817377 Z M 8.7234463 15.2118158 L 6.8289151 15.2118158 A 3.7951228 3.7951228 0 0 1 6.5750089 14.0985346 A 4.0309947 4.0309947 0 0 1 3.5671964 15.4071282 Q 2.0046963 15.4071283 1.0037198 14.5233392 A 2.8593678 2.8593678 0 0 1 0.0027431 12.2821283 A 2.9870681 2.9870681 0 0 1 1.2576261 9.7186518 A 5.9164347 5.9164347 0 0 1 4.7878994 8.805566 L 6.545712 8.8055658 L 6.545712 7.9754877 Q 6.545712 7.028222 5.9793057 6.4666986 A 2.2763612 2.2763612 0 0 0 4.3093839 5.9051752 A 2.6343723 2.6343723 0 0 0 2.6882902 6.3934566 A 1.4387954 1.4387954 0 0 0 2.0339933 7.5750971 L 0.217587 7.575097 Q 0.217587 6.7840814 0.7791104 6.0467767 A 3.8324477 3.8324477 0 0 1 2.3025479 4.8797845 Q 3.264462 4.450097 4.4168057 4.450097 A 4.1772006 4.1772006 0 0 1 7.278134 5.3631828 A 3.2938006 3.2938006 0 0 1 8.3523527 7.8778314 L 8.3523526 12.7411127 A 5.9458189 5.9458189 0 0 0 8.7234464 15.0555658 L 8.7234463 15.2118158 Z M 20.1296963 9.8895502 L 20.1296963 10.0458002 A 6.2826499 6.2826499 0 0 1 19.016415 13.9374016 Q 17.9031338 15.4071283 16.0281338 15.4071283 A 3.6834749 3.6834749 0 0 1 12.9324308 13.9911126 L 12.8445401 15.2118158 L 11.1843838 15.2118158 L 11.1843838 0.2118158 L 12.9910245 0.2118158 L 12.9910245 5.8075189 A 3.6625112 3.6625112 0 0 1 16.0086026 4.4500972 A 3.5788179 3.5788179 0 0 1 19.0310634 5.9051753 Q 20.1296963 7.3602533 20.1296963 9.8895502 Z M 32.4343838 9.9774408 L 32.4343838 9.840722 A 6.1899166 6.1899166 0 0 1 33.5867277 5.9295892 Q 34.7390713 4.450097 36.6043057 4.450097 Q 38.4597745 4.450097 39.5437588 5.7196283 L 39.5437588 0.2118158 L 41.3503995 0.2118158 L 41.3503995 15.2118158 L 39.6902432 15.2118158 L 39.6023526 14.0790033 A 3.6791936 3.6791936 0 0 1 36.5847744 15.4071282 A 3.6090088 3.6090088 0 0 1 33.5916104 13.903222 Q 32.4343838 12.3993158 32.4343838 9.9774408 Z M 157.2097745 9.8797845 L 157.2097745 10.0458002 A 6.326939 6.326939 0 0 1 156.1062587 13.9325188 Q 155.0027432 15.4071283 153.1179776 15.4071283 Q 151.1941495 15.4071283 150.0906338 14.1864252 L 150.0906338 19.2743158 L 148.2839932 19.2743158 L 148.2839932 4.6454095 L 149.9343838 4.6454095 L 150.0222745 5.8172845 A 3.7216931 3.7216931 0 0 1 153.0886807 4.4500971 A 3.6030724 3.6030724 0 0 1 156.1013759 5.885644 A 6.3959594 6.3959594 0 0 1 157.2097744 9.8797846 Z M 43.6941495 10.2215814 L 43.6941495 9.8895502 A 6.3406674 6.3406674 0 0 1 44.2947353 7.0819329 A 4.6850214 4.6850214 0 0 1 45.9744228 5.1483391 A 4.2230928 4.2230928 0 0 1 48.3132901 4.450097 A 3.957278 3.957278 0 0 1 51.5164152 5.8075188 A 5.8771382 5.8771382 0 0 1 52.6589933 9.6942377 L 52.6589932 10.4461908 L 45.5007901 10.4461908 Q 45.5398526 12.0086908 46.413876 12.9706049 A 2.8700872 2.8700872 0 0 0 48.6355557 13.9325191 Q 49.592587 13.9325189 50.2566495 13.5418939 A 4.073155 4.073155 0 0 0 51.4187589 12.5067377 L 52.5222745 13.3661127 A 4.4371095 4.4371095 0 0 1 48.5378995 15.4071285 A 4.6167576 4.6167576 0 0 1 45.0418057 13.9959955 A 5.2374976 5.2374976 0 0 1 43.6941495 10.2215814 Z M 159.0652432 9.9676752 L 159.0652432 9.840722 A 6.2018171 6.2018171 0 0 1 160.2078214 5.9002924 A 3.7023888 3.7023888 0 0 1 163.2742276 4.4500971 A 3.6998212 3.6998212 0 0 1 166.2332119 5.7098627 L 166.311337 4.6454095 L 167.9714932 4.6454095 L 167.9714932 19.2743158 L 166.1648526 19.2743158 L 166.1648526 14.2352533 Q 165.0711026 15.4071283 163.2546963 15.4071283 A 3.6438925 3.6438925 0 0 1 160.2029385 13.9178705 A 6.3397282 6.3397282 0 0 1 159.0652433 9.9676752 Z M 57.4441495 15.2118158 L 55.6375088 15.2118158 L 55.6375088 6.0418939 L 53.967587 6.0418939 L 53.967587 4.6454095 L 55.6375088 4.6454095 L 55.6375088 3.5614252 A 3.5980732 3.5980732 0 0 1 56.545712 0.9344722 Q 57.4539151 0.0067377 59.1140713 0.0067377 A 4.7411559 4.7411559 0 0 1 60.3543057 0.1727534 L 60.2566495 1.637597 A 5.1887364 5.1887364 0 0 0 59.280087 1.5497065 A 1.7657161 1.7657161 0 0 0 57.9226651 2.0624017 A 2.075193 2.075193 0 0 0 57.4441493 3.5321283 L 57.4441495 4.6454095 L 59.7000088 4.6454095 L 59.7000088 6.0418939 L 57.4441495 6.0418939 L 57.4441495 15.2118158 Z M 206.311337 4.6454095 L 208.9968838 12.7606439 L 211.6140713 4.6454095 L 213.4597745 4.6454095 L 209.670712 15.2118158 L 208.2937588 15.2118158 L 204.4656338 4.6454095 L 206.311337 4.6454095 Z M 188.5964932 2.0868158 L 190.4031338 2.0868158 L 190.4031338 4.6454095 L 192.3757901 4.6454095 L 192.3757901 6.0418939 L 190.4031338 6.0418939 L 190.4031338 12.5946283 A 1.4635652 1.4635652 0 0 0 190.6668058 13.5467767 A 1.1104461 1.1104461 0 0 0 191.5652432 13.8641596 A 4.3739952 4.3739952 0 0 0 192.4246182 13.7469722 L 192.4246182 15.2118158 A 5.2376514 5.2376514 0 0 1 191.0378995 15.4071284 A 2.249981 2.249981 0 0 1 189.2117275 14.6747065 A 3.1465102 3.1465102 0 0 1 188.5964932 12.5946282 L 188.5964932 6.0418939 L 186.6726651 6.0418939 L 186.6726651 4.6454095 L 188.5964932 4.6454095 L 188.5964932 2.0868158 Z M 88.6062588 4.6454095 L 90.4128995 4.6454095 L 90.4128995 16.4325189 Q 90.4128995 19.4793939 87.6492276 19.4793939 A 3.3522956 3.3522956 0 0 1 86.545712 19.3036125 L 86.545712 17.8583002 Q 86.858212 17.9364252 87.3660245 17.9364252 A 1.2278322 1.2278322 0 0 0 88.2888759 17.6092766 A 1.6170589 1.6170589 0 0 0 88.6062591 16.4715814 L 88.6062588 4.6454095 Z M 105.4226651 0.2118158 L 105.4226651 15.2118158 L 103.6160245 15.2118158 L 103.6160245 0.2118158 L 105.4226651 0.2118158 Z M 136.3992276 9.9579095 L 136.3992276 9.8309564 A 6.2410929 6.2410929 0 0 1 137.009579 7.0379876 Q 137.6199307 5.7977533 138.7087979 5.1239252 A 4.62551 4.62551 0 0 1 141.1941495 4.4500971 A 4.4560511 4.4560511 0 0 1 144.6853603 5.9442377 Q 146.0183682 7.4383783 146.0183682 9.918847 L 146.0183682 10.0458002 A 6.2954346 6.2954346 0 0 1 145.427548 12.8143549 A 4.4861596 4.4861596 0 0 1 143.7380948 14.7235346 Q 142.639462 15.4071283 141.2136807 15.4071283 Q 139.0652432 15.4071283 137.7322354 13.9129877 A 5.7193558 5.7193558 0 0 1 136.3992276 9.9579095 Z M 175.9793057 4.5868158 L 175.9793057 6.2665033 Q 175.5691495 6.1981439 175.0906338 6.1981439 A 2.3807502 2.3807502 0 0 0 172.6785245 7.7118158 L 172.6785245 15.2118158 L 170.8718838 15.2118158 L 170.8718838 4.6454095 L 172.6296963 4.6454095 L 172.6589932 5.8661127 A 2.8131542 2.8131542 0 0 1 175.1785245 4.4500969 A 1.8456772 1.8456772 0 0 1 175.9793057 4.5868156 Z M 85.6570401 4.6454095 L 85.6570401 15.2118158 L 83.8503995 15.2118158 L 83.8503995 4.6454095 L 85.6570401 4.6454095 Z M 138.2156339 10.0458001 A 4.5204089 4.5204089 0 0 0 139.0310635 12.8680658 A 2.609652 2.609652 0 0 0 141.2136807 13.9325188 Q 142.5906338 13.9325189 143.4011807 12.8534174 A 4.943161 4.943161 0 0 0 144.2117277 9.8309564 A 4.5125188 4.5125188 0 0 0 143.3865324 7.0135735 Q 142.561337 5.934472 141.1941495 5.934472 A 2.5942588 2.5942588 0 0 0 139.0359463 6.9989251 Q 138.2156338 8.0633783 138.2156338 10.0458002 Z M 166.1648526 12.5067377 L 166.1648526 7.3309564 A 2.7137874 2.7137874 0 0 0 163.7234463 5.9344721 A 2.4566961 2.4566961 0 0 0 161.6433681 6.974511 A 5.1178963 5.1178963 0 0 0 160.871884 10.0458001 Q 160.8718838 11.8622064 161.6384854 12.8973627 Q 162.405087 13.9325189 163.7039151 13.9325189 A 2.7052561 2.7052561 0 0 0 166.1648525 12.5067376 Z M 150.0906338 7.4383783 L 150.0906338 12.4872064 A 2.6609419 2.6609419 0 0 0 152.5711026 13.932519 Q 153.8699307 13.9325189 154.6365323 12.9022455 Q 155.4031338 11.871972 155.4031338 9.840722 A 4.6686117 4.6686117 0 0 0 154.6414153 7.0184563 A 2.4537645 2.4537645 0 0 0 152.5515714 5.9833002 A 2.6557895 2.6557895 0 0 0 150.090634 7.4383784 Z M 39.5437588 12.3309564 L 39.5437588 7.4774408 Q 38.733212 5.9833002 37.0535245 5.9833002 A 2.4106835 2.4106835 0 0 0 34.983212 7.0086908 A 5.1601949 5.1601949 0 0 0 34.2410246 10.0458002 A 4.6866933 4.6866933 0 0 0 34.9832119 12.8583003 Q 35.7253995 13.8739252 37.0339932 13.8739252 A 2.6356225 2.6356225 0 0 0 39.5437588 12.3309564 Z M 12.9910245 7.6434564 L 12.9910245 12.2137689 A 2.7265246 2.7265246 0 0 0 15.5789151 13.8739251 Q 16.8777432 13.8739252 17.6003995 12.8680658 A 5.1915375 5.1915375 0 0 0 18.3230557 9.840722 A 4.8820282 4.8820282 0 0 0 17.6101651 6.9891595 Q 16.8972745 5.9833002 15.5593838 5.9833002 Q 13.7722745 5.9833002 12.9910245 7.6434564 Z M 68.1375088 12.3211908 L 68.1375088 7.496972 A 2.6773441 2.6773441 0 0 0 65.6472745 5.9833001 A 2.4012503 2.4012503 0 0 0 63.5867276 7.0086908 A 5.1601949 5.1601949 0 0 0 62.8445402 10.0458002 A 4.7376993 4.7376993 0 0 0 63.5769619 12.8534174 Q 64.3093838 13.8739252 65.6277432 13.8739252 Q 67.3367276 13.8739252 68.1375088 12.3211908 Z M 6.545712 12.2528314 L 6.545712 10.0848627 L 5.1296963 10.0848627 A 3.5133127 3.5133127 0 0 0 2.0647809 11.0997473 A 1.6550235 1.6550235 0 0 0 1.8093838 12.028222 Q 1.8093838 12.8778314 2.3757901 13.356347 A 2.1770323 2.1770323 0 0 0 3.8308682 13.8348628 A 3.1752165 3.1752165 0 0 0 5.4421964 13.3954096 Q 6.2039151 12.9559564 6.545712 12.2528314 Z M 45.5593838 8.9618158 L 50.8523526 8.9618158 L 50.8523526 8.825097 A 3.4410435 3.4410435 0 0 0 50.110165 6.6913081 A 2.2688184 2.2688184 0 0 0 48.3132901 5.934472 Q 47.2195401 5.934472 46.4773526 6.7303705 Q 45.7351651 7.5262689 45.5593838 8.9618158 Z M 83.7039151 1.8426752 Q 83.7039151 1.403222 83.9724698 1.1004877 Q 84.2410245 0.7977533 84.7683682 0.7977533 A 1.0239765 1.0239765 0 0 1 85.5691494 1.1004877 A 1.0670419 1.0670419 0 0 1 85.8425871 1.8426752 A 1.0319304 1.0319304 0 0 1 85.5691493 2.5750969 A 1.0425434 1.0425434 0 0 1 84.7683682 2.8680659 Q 84.2410245 2.8680658 83.9724698 2.575097 A 1.0427072 1.0427072 0 0 1 83.7039151 1.8426751 Z M 88.6892666 1.1053704 A 1.0833263 1.0833263 0 0 0 88.420712 1.8426752 A 1.0540287 1.0540287 0 0 0 88.6843838 2.5750971 A 1.0104451 1.0104451 0 0 0 89.4753994 2.8680658 A 1.0425434 1.0425434 0 0 0 90.2761808 2.575097 A 1.0319304 1.0319304 0 0 0 90.5496182 1.8426751 A 1.0670419 1.0670419 0 0 0 90.2761807 1.1004877 A 1.0239765 1.0239765 0 0 0 89.4753994 0.7977533 A 0.9874592 0.9874592 0 0 0 88.6892666 1.1053705 Z" fill="black"/>
</svg>